<svg width="250" height="135" viewBox="0 0 250 135" fill="none" xmlns="http://www.w3.org/2000/svg">
<g filter="url(#filter0_i_2_119)">
<path d="M50.4834 77.1681L32.7714 30.8001H44.8674L56.6754 63.9201L68.5554 30.8001H80.7234L63.0114 77.1681H50.4834Z" fill="#F2CB07"/>
<path d="M73.8274 75.6331V72.0296H77.4309V75.6331H73.8274ZM82.4134 75.6331V52.4491H93.8254C95.6734 52.4491 97.1974 52.8211 98.3974 53.5651C99.5974 54.2851 100.485 55.2691 101.061 56.5171C101.661 57.7651 101.961 59.1691 101.961 60.7291C101.961 62.3131 101.625 63.7171 100.953 64.9411C100.281 66.1651 99.3214 67.1251 98.0734 67.8211C96.8494 68.4931 95.3854 68.8291 93.6814 68.8291H88.2094V75.6331H82.4134ZM88.2094 64.3651H92.3854C93.6094 64.3651 94.5214 64.0291 95.1214 63.3571C95.7454 62.6851 96.0574 61.7971 96.0574 60.6931C96.0574 59.4931 95.7694 58.5691 95.1934 57.9211C94.6414 57.2491 93.7654 56.9131 92.5654 56.9131H88.2094V64.3651ZM100.643 75.6331L109.499 52.4491H115.763L124.619 75.6331H118.571L116.483 70.3771H108.743L106.691 75.6331H100.643ZM109.535 66.0931H115.691L112.595 58.0291L109.535 66.0931ZM127.554 75.6331V52.4491H139.146C141.882 52.4491 143.898 53.1691 145.194 54.6091C146.49 56.0491 147.138 57.9811 147.138 60.4051C147.138 61.9651 146.742 63.3331 145.95 64.5091C145.158 65.6851 144.078 66.5611 142.71 67.1371C143.046 67.4011 143.31 67.7011 143.502 68.0371C143.718 68.3491 143.946 68.7931 144.186 69.3691L146.922 75.6331H140.874L138.282 69.7291C138.066 69.2251 137.79 68.8651 137.454 68.6491C137.118 68.4091 136.638 68.2891 136.014 68.2891H133.35V75.6331H127.554ZM133.35 63.8251H137.634C138.762 63.8251 139.638 63.5491 140.262 62.9971C140.91 62.4211 141.234 61.5571 141.234 60.4051C141.234 58.0771 140.118 56.9131 137.886 56.9131H133.35V63.8251ZM150.089 75.6331V52.4491H161.681C164.417 52.4491 166.433 53.1691 167.729 54.6091C169.025 56.0491 169.673 57.9811 169.673 60.4051C169.673 61.9651 169.277 63.3331 168.485 64.5091C167.693 65.6851 166.613 66.5611 165.245 67.1371C165.581 67.4011 165.845 67.7011 166.037 68.0371C166.253 68.3491 166.481 68.7931 166.721 69.3691L169.457 75.6331H163.409L160.817 69.7291C160.601 69.2251 160.325 68.8651 159.989 68.6491C159.653 68.4091 159.173 68.2891 158.549 68.2891H155.885V75.6331H150.089ZM155.885 63.8251H160.169C161.297 63.8251 162.173 63.5491 162.797 62.9971C163.445 62.4211 163.769 61.5571 163.769 60.4051C163.769 58.0771 162.653 56.9131 160.421 56.9131H155.885V63.8251Z" fill="#F4F4F4"/>
<path d="M205.571 75.6331V56.9131H198.767V52.4491H218.171V56.9131H211.367V75.6331H205.571Z" fill="#F4F4F4"/>
<path d="M190.863 58.0222L190.864 58.0224C192.233 59.3433 193.077 61.1647 193.077 63.1717C193.077 65.179 192.235 67.0001 190.864 68.3207L190.864 68.321C189.494 69.6422 187.598 70.4634 185.5 70.4634C183.402 70.4634 181.506 69.6439 180.137 68.3212L180.136 68.321C178.767 67.0001 177.923 65.1787 177.923 63.1717C177.923 61.1644 178.765 59.3433 180.136 58.0227L180.136 58.0224C181.506 56.7012 183.402 55.88 185.5 55.88C187.598 55.88 189.494 56.6995 190.863 58.0222ZM193.991 55.0057L193.991 55.0059C196.162 57.1 197.5 59.9871 197.5 63.1717C197.5 66.3583 196.162 69.2453 193.991 71.3374L193.991 71.3375C191.82 73.432 188.818 74.7301 185.5 74.7301C182.18 74.7301 179.178 73.432 177.009 71.3377L177.009 71.3374C174.838 69.2453 173.5 66.3583 173.5 63.1717C173.5 59.9851 174.838 57.0981 177.009 55.006L177.009 55.0057C179.178 52.9114 182.18 51.6133 185.5 51.6133C188.82 51.6133 191.822 52.9114 193.991 55.0057ZM185.694 61.4198L185.801 61.4577C185.703 61.4403 185.603 61.4313 185.5 61.4313C185.392 61.4313 185.287 61.4413 185.184 61.4605L185.261 61.4321L185.225 61.0503L185.223 61.0301C185.223 61.0292 185.223 61.0285 185.223 61.028V56.8893V56.3292L184.666 56.3925C183.054 56.5758 181.606 57.2842 180.514 58.339C179.912 58.9202 179.415 59.6081 179.059 60.3716L178.815 60.895L179.368 61.0617L183.582 62.3315L183.92 62.4336L184.075 62.2219C183.93 62.4613 183.846 62.742 183.846 63.0441C183.846 63.3071 183.911 63.5553 184.024 63.774C183.929 63.6022 183.868 63.4126 183.847 63.2139L183.798 62.7679H183.421L179.201 61.4939L178.674 61.3346L178.566 61.875C178.483 62.2952 178.439 62.7283 178.439 63.1717C178.439 65.0623 179.234 66.7737 180.512 68.0064C180.65 68.1392 180.795 68.2685 180.947 68.3921L181.383 68.7451L181.684 68.2725L184.07 64.529C184.092 64.5006 184.107 64.4763 184.113 64.4667C184.114 64.4657 184.115 64.4648 184.115 64.4641L184.297 64.1833L184.203 64.047C184.244 64.0976 184.288 64.1457 184.335 64.191L184.335 64.1912L184.337 64.193C184.47 64.3212 184.625 64.427 184.795 64.505L184.697 64.4789L184.501 64.787L182.104 68.5455L181.804 69.0163L182.305 69.2629C183.266 69.7359 184.352 70.0012 185.5 70.0012C186.692 70.0012 187.815 69.7147 188.802 69.2104L189.297 68.9572L188.993 68.4916L186.555 64.7645L186.35 64.4513L186.257 64.4795C186.407 64.4045 186.544 64.3078 186.663 64.193L186.665 64.1911L186.665 64.191C186.727 64.131 186.785 64.0661 186.836 63.9967L186.714 64.1864L186.94 64.4485L186.945 64.4561L189.401 68.2107L189.709 68.6822L190.141 68.3199C190.261 68.2193 190.375 68.1152 190.486 68.0083C191.764 66.7757 192.559 65.0642 192.559 63.1737C192.559 62.7769 192.524 62.3882 192.456 62.0078L192.36 61.4772L191.839 61.6121L187.531 62.7249L187.188 62.8136L187.158 63.1672C187.141 63.3768 187.081 63.5753 186.986 63.7554C187.093 63.5412 187.154 63.2997 187.154 63.0441L187.154 63.0408C187.152 62.7313 187.062 62.4444 186.91 62.2009L187.044 62.3802L187.376 62.284L187.39 62.2802L191.659 61.177L192.229 61.0297L191.992 60.4911C191.633 59.6786 191.117 58.948 190.481 58.3367C189.38 57.2739 187.916 56.5612 186.288 56.3863L185.734 56.3268V56.8834V61.0285V61.0704L185.694 61.4198ZM192.364 56.5255C190.604 54.8281 188.177 53.7809 185.5 53.7809C182.823 53.7809 180.396 54.8281 178.636 56.5255C176.876 58.2232 175.784 60.5724 175.784 63.1717C175.784 65.771 176.876 68.1202 178.636 69.8179C180.396 71.5153 182.823 72.5624 185.5 72.5624C188.177 72.5624 190.604 71.5153 192.364 69.8179C194.124 68.1202 195.216 65.771 195.216 63.1717C195.216 60.5724 194.124 58.2232 192.364 56.5255Z" fill="#F2CB07" stroke="#F4F4F4"/>
<path d="M128.675 88.789L129.039 88.6267L128.986 89.0509L129.014 89.0578L130.051 89.3065L129.933 89.0628L156.45 88.9731L156.764 88.972L156.905 88.7026C158.849 84.9739 162.969 82.1786 167.719 82.1819L167.719 82.1819C172.753 82.1819 177.071 85.292 178.854 89.4091C178.901 89.5215 178.887 89.6576 178.814 89.7706C178.743 89.8814 178.64 89.9347 178.537 89.9347L178.537 89.9347L166.713 89.9381C166.713 89.9381 166.713 89.9381 166.713 89.9381C166.346 89.9382 165.952 90.0653 165.675 90.3778L165.672 90.3816L163.518 92.8667L163.515 92.8698C163.105 93.3504 163.105 94.0324 163.513 94.5138C163.513 94.5148 163.514 94.5158 163.515 94.5168L165.669 97.1163L165.668 97.1163L165.673 97.1217C165.768 97.2331 165.899 97.369 166.06 97.4798C166.217 97.5878 166.444 97.7008 166.72 97.6983C166.721 97.6983 166.723 97.6983 166.724 97.6982L178.58 97.6983C178.743 97.6983 178.844 97.7595 178.889 97.8121C178.925 97.8544 178.951 97.9163 178.911 98.0211C177.23 102.349 173.116 105.161 168.241 105.349C163.22 105.54 158.816 102.919 156.84 98.8338L156.702 98.549L156.375 98.5504L129.054 98.6667L128.74 98.6681L128.6 98.9372C126.657 102.663 122.538 105.42 117.786 105.417H117.785C112.75 105.417 108.433 102.326 106.651 98.2099C106.603 98.097 106.619 97.9679 106.688 97.8631C106.756 97.7601 106.857 97.7051 106.967 97.7051L118.795 97.7051C119.222 97.7051 119.595 97.4935 119.833 97.2244L119.837 97.2191L121.992 94.7134L121.993 94.7119C122.399 94.2356 122.412 93.5411 121.993 93.0577L119.841 90.4937L119.839 90.4908C119.646 90.2643 119.276 89.9484 118.795 89.9484L106.936 89.9381L106.935 89.9381C106.788 89.9381 106.687 89.8783 106.635 89.8141C106.588 89.7559 106.565 89.6775 106.604 89.574C108.282 85.2438 112.391 82.4477 117.274 82.2603C122.294 82.0695 126.699 84.7033 128.675 88.789Z" fill="#F2CB07" stroke="#F4F4F4"/>
</g>
<defs>
<filter id="filter0_i_2_119" x="32.7714" y="30.8001" width="185.399" height="79.1064" filterUnits="userSpaceOnUse" color-interpolation-filters="sRGB">
<feFlood flood-opacity="0" result="BackgroundImageFix"/>
<feBlend mode="normal" in="SourceGraphic" in2="BackgroundImageFix" result="shape"/>
<feColorMatrix in="SourceAlpha" type="matrix" values="0 0 0 0 0 0 0 0 0 0 0 0 0 0 0 0 0 0 127 0" result="hardAlpha"/>
<feOffset dy="4"/>
<feGaussianBlur stdDeviation="2"/>
<feComposite in2="hardAlpha" operator="arithmetic" k2="-1" k3="1"/>
<feColorMatrix type="matrix" values="0 0 0 0 0 0 0 0 0 0 0 0 0 0 0 0 0 0 0.25 0"/>
<feBlend mode="normal" in2="shape" result="effect1_innerShadow_2_119"/>
</filter>
</defs>
</svg>
