<svg width="250" height="130" viewBox="0 0 250 130" fill="none" xmlns="http://www.w3.org/2000/svg">
<g filter="url(#filter0_i_2_119)">
<path d="M50.4834 77L32.7714 30.632H44.8674L56.6754 63.752L68.5554 30.632H80.7234L63.0114 77H50.4834Z" fill="#F2CB07"/>
<path d="M73.8274 75.5V71.8965H77.4309V75.5H73.8274ZM82.4134 75.5V52.316H93.8254C95.6734 52.316 97.1974 52.688 98.3974 53.432C99.5974 54.152 100.485 55.136 101.061 56.384C101.661 57.632 101.961 59.036 101.961 60.596C101.961 62.18 101.625 63.584 100.953 64.808C100.281 66.032 99.3214 66.992 98.0734 67.688C96.8494 68.36 95.3854 68.696 93.6814 68.696H88.2094V75.5H82.4134ZM88.2094 64.232H92.3854C93.6094 64.232 94.5214 63.896 95.1214 63.224C95.7454 62.552 96.0574 61.664 96.0574 60.56C96.0574 59.36 95.7694 58.436 95.1934 57.788C94.6414 57.116 93.7654 56.78 92.5654 56.78H88.2094V64.232ZM100.643 75.5L109.499 52.316H115.763L124.619 75.5H118.571L116.483 70.244H108.743L106.691 75.5H100.643ZM109.535 65.96H115.691L112.595 57.896L109.535 65.96ZM127.554 75.5V52.316H139.146C141.882 52.316 143.898 53.036 145.194 54.476C146.49 55.916 147.138 57.848 147.138 60.272C147.138 61.832 146.742 63.2 145.95 64.376C145.158 65.552 144.078 66.428 142.71 67.004C143.046 67.268 143.31 67.568 143.502 67.904C143.718 68.216 143.946 68.66 144.186 69.236L146.922 75.5H140.874L138.282 69.596C138.066 69.092 137.79 68.732 137.454 68.516C137.118 68.276 136.638 68.156 136.014 68.156H133.35V75.5H127.554ZM133.35 63.692H137.634C138.762 63.692 139.638 63.416 140.262 62.864C140.91 62.288 141.234 61.424 141.234 60.272C141.234 57.944 140.118 56.78 137.886 56.78H133.35V63.692ZM150.089 75.5V52.316H161.681C164.417 52.316 166.433 53.036 167.729 54.476C169.025 55.916 169.673 57.848 169.673 60.272C169.673 61.832 169.277 63.2 168.485 64.376C167.693 65.552 166.613 66.428 165.245 67.004C165.581 67.268 165.845 67.568 166.037 67.904C166.253 68.216 166.481 68.66 166.721 69.236L169.457 75.5H163.409L160.817 69.596C160.601 69.092 160.325 68.732 159.989 68.516C159.653 68.276 159.173 68.156 158.549 68.156H155.885V75.5H150.089ZM155.885 63.692H160.169C161.297 63.692 162.173 63.416 162.797 62.864C163.445 62.288 163.769 61.424 163.769 60.272C163.769 57.944 162.653 56.78 160.421 56.78H155.885V63.692Z" fill="#F4F4F4"/>
<path d="M205.571 75.5V56.78H198.767V52.316H218.171V56.78H211.367V75.5H205.571Z" fill="#F4F4F4"/>
<path d="M189.017 60.7729L189.017 60.7732C190.387 62.0956 191.231 63.9191 191.231 65.9286C191.231 67.9383 190.389 69.7617 189.018 71.0837L189.017 71.084C187.648 72.4066 185.751 73.2286 183.654 73.2286C181.556 73.2286 179.66 72.4084 178.291 71.0842L178.29 71.084C176.921 69.7616 176.077 67.938 176.077 65.9286C176.077 63.9188 176.919 62.0955 178.29 60.7734L178.29 60.7732C179.66 59.4505 181.556 58.6285 183.654 58.6285C185.752 58.6285 187.648 59.4488 189.017 60.7729ZM192.144 57.7532L192.144 57.7534C194.315 59.8498 195.654 62.7402 195.654 65.9286C195.654 69.119 194.315 72.0093 192.145 74.1036L192.144 74.1038C189.973 76.2005 186.972 77.5 183.654 77.5C180.334 77.5 177.332 76.2005 175.163 74.1039L175.163 74.1036C172.992 72.0093 171.654 69.119 171.654 65.9286C171.654 62.7382 172.992 59.8479 175.163 57.7535L175.163 57.7532C177.332 55.6567 180.334 54.3571 183.654 54.3571C186.974 54.3571 189.975 55.6567 192.144 57.7532ZM183.848 64.1743L183.961 64.2143C183.861 64.1963 183.759 64.1869 183.654 64.1869C183.544 64.1869 183.437 64.1972 183.332 64.2171L183.414 64.1866L183.379 63.805L183.377 63.7847C183.377 63.7838 183.377 63.7831 183.377 63.7826V59.6394V59.0793L182.82 59.1426C181.208 59.3262 179.759 60.0353 178.668 61.0912C178.065 61.6731 177.569 62.3617 177.213 63.1259L176.969 63.649L177.522 63.8158L181.735 65.087L182.074 65.1893L182.231 64.9745C182.085 65.2149 182 65.4971 182 65.8009C182 66.0676 182.066 66.3191 182.182 66.5402C182.085 66.366 182.022 66.1732 182 65.971L181.952 65.5248H181.575L177.355 64.2495L176.828 64.09L176.72 64.6307C176.637 65.0513 176.593 65.4848 176.593 65.9286C176.593 67.8208 177.388 69.5339 178.666 70.7679C178.803 70.9008 178.948 71.0303 179.101 71.154L179.536 71.5076L179.838 71.0343L182.224 67.2868C182.246 67.2584 182.261 67.2341 182.267 67.2245C182.268 67.2235 182.269 67.2226 182.269 67.2219L182.451 66.9413L182.354 66.8007C182.396 66.8527 182.441 66.902 182.489 66.9484L182.489 66.9485L182.491 66.9504C182.491 66.9504 182.491 66.9504 182.491 66.9504C182.491 66.9505 182.491 66.9505 182.491 66.9505C182.625 67.0802 182.782 67.1869 182.955 67.2652L182.851 67.2377L182.654 67.5461L180.258 71.3086L179.958 71.7791L180.458 72.0257C181.419 72.4992 182.506 72.7649 183.654 72.7649C184.846 72.7649 185.969 72.4781 186.956 71.9732L187.451 71.72L187.147 71.2547L184.709 67.5236L184.504 67.21L184.406 67.2398C184.558 67.1644 184.696 67.0667 184.817 66.9505C184.817 66.9504 184.817 66.9504 184.817 66.9504L184.819 66.9485L184.819 66.9484C184.882 66.8873 184.941 66.821 184.993 66.7502L184.868 66.9443L185.094 67.2062L185.099 67.2139L187.555 70.9725L187.863 71.4447L188.295 71.0817C188.415 70.981 188.529 70.8768 188.64 70.7698C189.918 69.5359 190.713 67.8228 190.713 65.9305C190.713 65.5334 190.678 65.1443 190.61 64.7636L190.514 64.2328L189.992 64.3678L185.685 65.4818L185.342 65.5707L185.312 65.9242C185.294 66.1374 185.233 66.3392 185.135 66.5218C185.245 66.3052 185.307 66.0602 185.307 65.8009L185.307 65.7976C185.305 65.4862 185.215 65.1977 185.062 64.9532L185.198 65.1358L185.53 65.0394L185.544 65.0355L189.813 63.9312L190.383 63.7838L190.146 63.2455C189.787 62.4321 189.271 61.7007 188.635 61.0887C187.533 60.0249 186.07 59.3115 184.442 59.1364L183.888 59.0768V59.6335V63.7831V63.8251L183.848 64.1743ZM190.518 59.2758C188.758 57.5766 186.331 56.5283 183.654 56.5283C180.976 56.5283 178.549 57.5766 176.79 59.2758C175.03 60.9753 173.938 63.3268 173.938 65.9286C173.938 68.5303 175.03 70.8819 176.79 72.5813C178.549 74.2805 180.976 75.3289 183.654 75.3289C186.331 75.3289 188.758 74.2805 190.518 72.5813C192.277 70.8819 193.37 68.5303 193.37 65.9286C193.37 63.3268 192.277 60.9753 190.518 59.2758Z" fill="#F2CB07" stroke="#F4F4F4"/>
<path d="M128.533 87.1189L128.114 87.2417C125.3 83.4215 119.033 80.9604 111.894 81.1388C104.949 81.314 99.1005 83.9275 96.7134 87.9758C96.6427 88.0974 96.6823 88.1982 96.7747 88.273C96.8726 88.3523 97.0522 88.4178 97.2959 88.4178L97.2964 88.4178L114.047 88.4274L114.047 88.4274M128.533 87.1189L114.963 89.1412C114.737 88.9665 114.399 88.8045 114.047 88.8045L114.047 88.4274M128.533 87.1189L128.471 87.4424L128.511 87.4488L129.726 87.6403L129.587 87.4515M128.533 87.1189L129.587 87.4515M114.047 88.4274C114.671 88.4275 115.162 88.6983 115.426 88.9024L115.429 88.9046L118.469 91.2842M114.047 88.4274L118.469 91.2842M118.469 91.2842C118.467 91.2831 118.466 91.2821 118.464 91.281L118.006 91.5235L118.472 91.2869L118.469 91.2842ZM118.469 91.2842C119.023 91.7035 119.007 92.3071 118.469 92.7215L118.468 92.7227L115.425 95.0478L115.419 95.0519L115.419 95.0519C115.102 95.2878 114.607 95.4708 114.047 95.4708H97.3412C96.9404 95.4708 96.5996 95.7655 96.7812 96.0464M118.469 91.2842L128.54 96.8947L167.13 96.7867C170.047 100.748 176.541 103.279 183.916 103.095M96.7812 96.0464C96.7809 96.0459 96.7806 96.0454 96.7802 96.0449L96.2281 96.1895L96.7815 96.0468C96.7814 96.0467 96.7813 96.0466 96.7812 96.0464ZM96.7812 96.0464C99.3157 99.8923 105.455 102.781 112.621 102.781L112.621 102.781C119.384 102.784 125.242 100.207 128.005 96.7259L128.17 96.5186L128.538 96.5176L167.127 96.4096L167.511 96.4085L167.672 96.6279C170.485 100.447 176.752 102.896 183.892 102.718M183.892 102.718C183.892 102.718 183.892 102.718 183.892 102.718L183.916 103.095M183.892 102.718C190.826 102.543 196.68 99.9143 199.073 95.8681M183.892 102.718L183.916 103.095M183.916 103.095C191.085 102.914 197.155 100.192 199.634 95.999M199.543 87.6769C196.924 83.7001 190.576 80.6889 183.15 80.6889L129.587 87.4515M199.543 87.6769L198.99 87.8196C198.99 87.8198 198.99 87.8201 198.99 87.8203M199.543 87.6769L198.991 87.8215C198.991 87.8211 198.99 87.8207 198.99 87.8203M199.543 87.6769C199.871 88.1819 199.296 88.7918 198.43 88.7918L181.73 88.795C181.377 88.795 181.039 88.8744 180.813 89.0427L177.77 91.3488C177.407 91.6283 177.407 92.0221 177.77 92.3017M198.99 87.8203C196.455 83.9733 190.314 81.066 183.15 81.066L183.15 81.066C176.39 81.0629 170.531 83.6759 167.766 87.1596L167.601 87.3671L167.233 87.3679L129.587 87.4515M198.99 87.8203C199.177 88.1097 198.816 88.4146 198.43 88.4146L198.43 88.4146L181.73 88.4178L181.73 88.7941L181.729 88.4178C181.239 88.4178 180.719 88.5293 180.357 88.7986L180.353 88.8015L177.31 91.1075L177.307 91.1099C176.765 91.5276 176.764 92.1199 177.304 92.5382L177.302 92.5364L177.77 92.3017M177.77 92.3017L177.307 92.5405L180.349 94.9536L180.349 94.9536L180.355 94.9577C180.485 95.0584 180.663 95.1788 180.878 95.2762C181.089 95.3714 181.384 95.4667 181.738 95.4645L181.735 95.4645V95.0873M177.77 92.3017L180.818 94.7189C181.044 94.8936 181.377 95.0905 181.735 95.0873M181.735 95.0873L181.743 95.4644L198.49 95.4645C198.753 95.4645 198.932 95.5294 199.022 95.5982C199.101 95.659 199.144 95.7455 199.073 95.8681M181.735 95.0873L198.49 95.0873C199.327 95.0873 199.921 95.5066 199.634 95.999M199.634 95.999L199.073 95.8672C199.073 95.8675 199.073 95.8678 199.073 95.8681M199.634 95.999L199.073 95.8688C199.073 95.8686 199.073 95.8683 199.073 95.8681" fill="#F2CB07" stroke="#F4F4F4"/>
</g>
<defs>
<filter id="filter0_i_2_119" x="32.7714" y="30.632" width="185.399" height="76.5265" filterUnits="userSpaceOnUse" color-interpolation-filters="sRGB">
<feFlood flood-opacity="0" result="BackgroundImageFix"/>
<feBlend mode="normal" in="SourceGraphic" in2="BackgroundImageFix" result="shape"/>
<feColorMatrix in="SourceAlpha" type="matrix" values="0 0 0 0 0 0 0 0 0 0 0 0 0 0 0 0 0 0 127 0" result="hardAlpha"/>
<feOffset dy="4"/>
<feGaussianBlur stdDeviation="2"/>
<feComposite in2="hardAlpha" operator="arithmetic" k2="-1" k3="1"/>
<feColorMatrix type="matrix" values="0 0 0 0 0 0 0 0 0 0 0 0 0 0 0 0 0 0 0.25 0"/>
<feBlend mode="normal" in2="shape" result="effect1_innerShadow_2_119"/>
</filter>
</defs>
</svg>
